<svg width="12" height="14" viewBox="0 0 12 14" fill="none" xmlns="http://www.w3.org/2000/svg">
<path fill-rule="evenodd" clip-rule="evenodd" d="M9.34375 8V11.3438H6V8H9.34375ZM8.65625 0.65625H10V2H10.6562C11.0313 2 11.349 2.13021 11.6094 2.39062C11.8698 2.65104 12 2.96875 12 3.34375V12.6562C12 13.0313 11.8698 13.349 11.6094 13.6094C11.349 13.8698 11.0313 14 10.6562 14H1.34375C0.968748 14 0.651043 13.8698 0.390625 13.6094C0.130207 13.349 0 13.0313 0 12.6562V3.34375C0 2.96875 0.130207 2.65104 0.390625 2.39062C0.651043 2.13021 0.968748 2 1.34375 2H2V0.65625H3.34375V2H8.65625V0.65625ZM10.6562 12.6562V5.34375H1.34375V12.6562H10.6562Z" fill="#152C73"/>
<mask id="mask0_140_603" style="mask-type:alpha" maskUnits="userSpaceOnUse" x="0" y="0" width="12" height="14">
<path fill-rule="evenodd" clip-rule="evenodd" d="M9.34375 8V11.3438H6V8H9.34375ZM8.65625 0.65625H10V2H10.6562C11.0313 2 11.349 2.13021 11.6094 2.39062C11.8698 2.65104 12 2.96875 12 3.34375V12.6562C12 13.0313 11.8698 13.349 11.6094 13.6094C11.349 13.8698 11.0313 14 10.6562 14H1.34375C0.968748 14 0.651043 13.8698 0.390625 13.6094C0.130207 13.349 0 13.0313 0 12.6562V3.34375C0 2.96875 0.130207 2.65104 0.390625 2.39062C0.651043 2.13021 0.968748 2 1.34375 2H2V0.65625H3.34375V2H8.65625V0.65625ZM10.6562 12.6562V5.34375H1.34375V12.6562H10.6562Z" fill="white"/>
</mask>
<g mask="url(#mask0_140_603)">
<rect x="-30" y="-28" width="72" height="72" fill="#152C73"/>
</g>
</svg>
